<svg id="Component_1_1" data-name="Component 1 – 1" xmlns="http://www.w3.org/2000/svg" width="70.138" height="76.716" viewBox="0 0 70.138 76.716">
  <g id="Group_10" data-name="Group 10" transform="translate(0 0)">
    <path id="Path_129" data-name="Path 129" d="M-2001.6,67.143c-20.812,3.516-30.039,9.408-30.981,22.048s26.1,25.533,26.1,25.533S-2047.884,87.955-2001.6,67.143Z" transform="translate(2032.608 -50.854)" fill="#d6df20"/>
    <path id="Path_131" data-name="Path 131" d="M28.5,0C23.184,3.717-4.236,16.428.56,27.911S27.565,51.4,27.565,51.4-10.551,19.991,28.5,0Z" transform="matrix(-0.643, 0.766, -0.766, -0.643, 70.138, 33.04)" fill="#24a9e2"/>
    <path id="Path_130" data-name="Path 130" d="M26.54,0C19.222,1.774.97,7.208.027,19.847S22.782,51.436,22.782,51.436-14.024,19.114,26.54,0Z" transform="translate(32.474 76.716) rotate(-133)" fill="#ee252d"/>
  </g>
  <ellipse id="Ellipse_3" data-name="Ellipse 3" cx="3.659" cy="3.659" rx="3.659" ry="3.659" transform="translate(26.349 36.151)" fill="#231f20"/>
</svg>
